<?xml version="1.0" encoding="utf-8"?>
<!-- Generator: Adobe Illustrator 16.0.4, SVG Export Plug-In . SVG Version: 6.00 Build 0)  -->
<!DOCTYPE svg PUBLIC "-//W3C//DTD SVG 1.1//EN" "http://www.w3.org/Graphics/SVG/1.1/DTD/svg11.dtd">
<svg version="1.1" id="图层_1" xmlns="http://www.w3.org/2000/svg" xmlns:xlink="http://www.w3.org/1999/xlink" x="0px" y="0px"
	 width="16px" height="16px" viewBox="0 0 16 16" enable-background="new 0 0 16 16" xml:space="preserve">
<path fill-rule="evenodd" clip-rule="evenodd" d="M5.454,12.456H4.182v1.272h1.272V12.456z M5.454,9.911H4.182v1.908h1.272V9.911z
	 M5.454,7.365H4.182v1.909h1.272V7.365z M3.544,12.456H2.273v1.272h1.271V12.456z M3.544,9.911H2.273v1.908h1.271V9.911z
	 M3.544,7.365H2.273v1.909h1.271V7.365z M5.454,15H2.273C1.57,15,1,14.434,1,13.729V7.365c0-0.704,0.57-1.273,1.273-1.273h3.181
	c0.703,0,1.272,0.569,1.272,1.273v6.364C6.727,14.434,6.157,15,5.454,15z M13.727,11.819h-1.908v1.909h1.908V11.819z M13.727,8.638
	h-1.908v1.908h1.908V8.638z M13.727,5.455h-1.908v1.91h1.908V5.455z M13.727,2.273h-1.908v1.909h1.908V2.273z M11.182,11.819H9.273
	v1.909h1.908V11.819z M11.182,8.638H9.273v1.908h1.908V8.638z M11.182,5.455H9.273v1.91h1.908V5.455z M11.182,2.273H9.273v1.909
	h1.908V2.273z M13.727,15H9.273C8.57,15,8,14.434,8,13.729V2.273C8,1.57,8.57,1,9.273,1h4.453C14.43,1,15,1.57,15,2.273v11.455
	C15,14.434,14.43,15,13.727,15z"/>
</svg>
